<svg width="0" height="0" class="hidden">
  <symbol xmlns="http://www.w3.org/2000/svg" viewBox="0 0 20 20" id="database">
    <title>database_system</title>
    <path d="M2 18h16v-8H2v8zm-2 2h20V8H0v12zm5-6h10v-2H5v2zM2 6h16V4H2v2zm2-4h12V0H4v2z" fill-rule="evenodd"></path>
  </symbol>
  <symbol xmlns="http://www.w3.org/2000/svg" viewBox="0 0 50 50" id="email">
    <title>email</title>
    <path d="M42 0a8 8 0 018 8v34a8 8 0 01-8 8H8a8 8 0 01-8-8V8a8 8 0 018-8h34zm3 17.298l-20 17.65-20-17.65V40h40V17.298zM45 10H5v1.962l20.002 17.662L45 11.962V10z" fill="#1B96F3" fill-rule="evenodd"></path>
  </symbol>
  <symbol xmlns="http://www.w3.org/2000/svg" viewBox="0 0 50 50" id="github">
    <title>github</title>
    <path d="M42 0a8 8 0 018 8v34a8 8 0 01-8 8H8a8 8 0 01-8-8V8a8 8 0 018-8h34zM25 5C13.956 5 5 14.18 5 25.506c0 9.06 5.73 16.748 13.678 19.458.998.19 1.366-.444 1.366-.986 0-.488-.018-2.104-.028-3.818-5.564 1.24-6.738-2.42-6.738-2.42-.91-2.37-2.22-3-2.22-3-1.707-1.197-.08-1.245.117-1.246h.019c2.008.144 3.066 2.114 3.066 2.114 1.784 3.134 4.68 2.228 5.82 1.704.18-1.326.698-2.23 1.27-2.742-4.442-.518-9.112-2.278-9.112-10.134 0-2.24.782-4.068 2.06-5.504-.206-.518-.892-2.604.194-5.428 0 0 1.68-.55 5.502 2.102a18.75 18.75 0 015.006-.69c1.7.008 3.412.236 5.01.69 3.818-2.652 5.494-2.102 5.494-2.102 1.09 2.824.404 4.91.196 5.428 1.284 1.436 2.06 3.264 2.06 5.504 0 7.876-4.68 9.61-9.134 10.118.718.636 1.358 1.884 1.358 3.796v.327l-.001.636c-.004 1.977-.018 3.575-.022 4.357l-.001.308c0 .546.36 1.186 1.374.984C39.276 42.248 45 34.564 45 25.506 45 14.18 36.046 5 25 5z" fill="#1B96F3" fill-rule="evenodd"></path>
  </symbol>
  <symbol xmlns="http://www.w3.org/2000/svg" viewBox="0 0 18 20" id="html">
    <title>html</title>
    <path d="M14.435 6H5.812l.206 2h8.212c-.12 1.752-.484 5.464-.618 7.153l-4.613 1.298v.004l-.01.005-4.615-1.624L4.058 11H6.32l.16 2.063L8.993 14H9l2.51-.9.258-3.1h-7.81c-.038-.401-.524-5.608-.608-6h11.288c-.063.66-.127 1.338-.202 2zM0 0l1.638 18.148L8.99 20l7.37-1.889L18 0H0z" fill-rule="evenodd"></path>
  </symbol>
  <symbol xmlns="http://www.w3.org/2000/svg" viewBox="0 0 50 50" id="linkedin">
    <title>linkedin</title>
    <path d="M42 0a8 8 0 018 8v34a8 8 0 01-8 8H8a8 8 0 01-8-8V8a8 8 0 018-8h34zm-6.834 17.52C29.51 17.52 27 21.924 27 21.924V19h-8v26h8V31.002c0-3.75 1.962-5.982 5.268-5.982 3.038 0 4.732 2.142 4.732 5.982V45h8V28.116c0-7.144-4.176-10.596-9.834-10.596zM15 19H5v26h10V19zM9.884 5C7.186 5 5 7.204 5 9.92c0 2.718 2.186 4.922 4.884 4.922 2.696 0 4.884-2.204 4.882-4.922C14.766 7.204 12.58 5 9.884 5z" fill="#1B96F3" fill-rule="evenodd"></path>
  </symbol>
  <symbol xmlns="http://www.w3.org/2000/svg" viewBox="0 0 20 17" id="sketch">
    <title>sketch</title>
    <path d="M4.238 2.35L5.4 5.164H2.733L4.238 2.35zm9.346 4.874h2.993l-5.479 6.024 2.486-6.024zm-4.843 6.039l-5.64-6.039h3.148l2.492 6.039zM7.568 5.164l-1.275-3.09h7.247l-1.275 3.09H7.568zm3.847 2.06l-1.498 3.631-1.499-3.63h2.997zm5.845-2.06h-2.826l1.177-2.853 1.65 2.853zm2.527.272L16.933.268C16.817.087 16.661 0 16.483 0c-.19 0-.406.013-.63.013H4.188c-.22 0-.434-.008-.62-.008a.514.514 0 00-.474.263L.198 5.752a1.256 1.256 0 00.13 1.524l8.693 9.279a1.266 1.266 0 001.938-.011l8.722-9.529a1.32 1.32 0 00.106-1.58z" fill-rule="evenodd"></path>
  </symbol>
  <symbol xmlns="http://www.w3.org/2000/svg" viewBox="0 0 20 18" id="swift">
    <title>swift</title>
    <path d="M12.322 0c8.791 6.025 5.948 12.668 5.948 12.668s2.5 2.844 1.489 5.332c0 0-1.031-1.742-2.76-1.742-1.667 0-2.646 1.742-6 1.742C3.531 18 0 11.712 0 11.712c6.728 4.461 11.322 1.302 11.322 1.302C8.291 11.241 1.843 2.76 1.843 2.76c5.615 4.817 8.042 6.088 8.042 6.088C8.437 7.64 4.374 1.742 4.374 1.742c3.25 3.317 9.708 7.945 9.708 7.945C15.916 4.565 12.322 0 12.322 0" fill-rule="evenodd"></path>
  </symbol>
  <symbol xmlns="http://www.w3.org/2000/svg" viewBox="0 0 20 18" id="sunset">
    <title>sunset</title>
    <path d="M15.646 7.08l2.121-2.121a1 1 0 00-1.414-1.415l-2.121 2.122a.999.999 0 101.414 1.414zM10 5a1 1 0 001-1V1a1 1 0 10-2 0v3a1 1 0 001 1zM4.353 7.08a.999.999 0 101.414-1.414L3.646 3.544a1 1 0 10-1.414 1.415L4.353 7.08zM15 15.804c0-2.757-2.243-4.882-5-4.882s-5 2.164-5 4.921c0 .107.025.157.031.157h9.937a.466.466 0 00.032-.196zM20 17a1 1 0 01-1 1H1a1 1 0 110-2h2.015A.897.897 0 013 15.804c0-3.786 3.005-6.757 6.761-6.879 2.564-.082 4.892 1.421 6.109 3.68C17.154 14.989 17.005 16 16.984 16H19a1 1 0 011 1zm-6-1.005c-1 .003 0-.005 0-.011v.011z" fill-rule="evenodd"></path>
  </symbol>
  <symbol xmlns="http://www.w3.org/2000/svg" viewBox="0 0 50 50" id="twitter">
    <title>icons/twitter</title>
    <path d="M42 0a8 8 0 018 8v34a8 8 0 01-8 8H8a8 8 0 01-8-8V8a8 8 0 018-8h34zM27.072 11.196a8.011 8.011 0 00-2.374 7.72c-6.598-.326-12.746-3.394-16.914-8.44-2.178 3.691-1.064 8.413 2.542 10.784A8.243 8.243 0 016.6 20.25v.102c.002 3.846 2.756 7.158 6.584 7.92a8.289 8.289 0 01-3.704.138c1.074 3.292 4.156 5.547 7.666 5.612a16.63 16.63 0 01-10.192 3.465A17.086 17.086 0 015 37.371a23.507 23.507 0 0012.58 3.623V41c15.094 0 23.35-12.313 23.35-22.99 0-.35 0-.698-.024-1.045A16.53 16.53 0 0045 12.783a16.546 16.546 0 01-4.712 1.272 8.14 8.14 0 003.608-4.47 16.606 16.606 0 01-5.212 1.961c-3.108-3.253-8.306-3.41-11.612-.35z" fill="#1B96F3" fill-rule="evenodd"></path>
  </symbol>
  <symbol xmlns="http://www.w3.org/2000/svg" viewBox="0 0 512 512" id="usa">
    <circle cx="256" cy="256" r="256" fill="#fff"></circle>
    <path d="M244.87 256H512c0-23.106-3.08-45.49-8.819-66.783H244.87V256zm0-133.565h229.556a257.35 257.35 0 00-59.07-66.783H244.87v66.783zM256 512c60.249 0 115.626-20.824 159.356-55.652H96.644C140.374 491.176 195.751 512 256 512zM37.574 389.565h436.852a254.474 254.474 0 0028.755-66.783H8.819a254.474 254.474 0 0028.755 66.783z" fill-rude="evenodd"></path>
    <path d="M118.584 39.978h23.329l-21.7 15.765 8.289 25.509-21.699-15.765-21.699 15.765 7.16-22.037a257.407 257.407 0 00-49.652 55.337h7.475l-13.813 10.035a255.58 255.58 0 00-6.194 10.938l6.596 20.301-12.306-8.941a253.567 253.567 0 00-8.372 19.873l7.267 22.368h26.822l-21.7 15.765 8.289 25.509-21.699-15.765-12.998 9.444A258.468 258.468 0 000 256h256V0c-50.572 0-97.715 14.67-137.416 39.978zm9.918 190.422l-21.699-15.765L85.104 230.4l8.289-25.509-21.7-15.765h26.822l8.288-25.509 8.288 25.509h26.822l-21.7 15.765 8.289 25.509zm-8.289-100.083l8.289 25.509-21.699-15.765-21.699 15.765 8.289-25.509-21.7-15.765h26.822l8.288-25.509 8.288 25.509h26.822l-21.7 15.765zM220.328 230.4l-21.699-15.765L176.93 230.4l8.289-25.509-21.7-15.765h26.822l8.288-25.509 8.288 25.509h26.822l-21.7 15.765 8.289 25.509zm-8.289-100.083l8.289 25.509-21.699-15.765-21.699 15.765 8.289-25.509-21.7-15.765h26.822l8.288-25.509 8.288 25.509h26.822l-21.7 15.765zm0-74.574l8.289 25.509-21.699-15.765-21.699 15.765 8.289-25.509-21.7-15.765h26.822l8.288-25.509 8.288 25.509h26.822l-21.7 15.765z" fill-rule="evenodd"></path>
  </symbol>
  <symbol xmlns="http://www.w3.org/2000/svg" viewBox="0 0 20 20" id="github-button">
    <title>github</title>
    <path d="M10 0c5.523 0 10 4.59 10 10.253 0 4.529-2.862 8.371-6.833 9.728-.507.101-.687-.219-.687-.492 0-.338.012-1.442.012-2.814 0-.956-.32-1.58-.679-1.898 2.227-.254 4.567-1.121 4.567-5.059 0-1.12-.388-2.034-1.03-2.752.104-.259.447-1.302-.098-2.714 0 0-.838-.275-2.747 1.051A9.396 9.396 0 0010 4.958a9.375 9.375 0 00-2.503.345C5.586 3.977 4.746 4.252 4.746 4.252c-.543 1.412-.2 2.455-.097 2.714-.639.718-1.03 1.632-1.03 2.752 0 3.928 2.335 4.808 4.556 5.067-.286.256-.545.708-.635 1.371-.57.262-2.018.715-2.91-.852 0 0-.529-.985-1.533-1.057 0 0-.975-.013-.068.623 0 0 .655.315 1.11 1.5 0 0 .587 1.83 3.369 1.21.005.857.014 1.665.014 1.909 0 .271-.184.588-.683.493C2.865 18.627 0 14.783 0 10.253 0 4.59 4.478 0 10 0" fill-rule="evenodd"></path>
  </symbol>
</svg>

