<svg width="0" height="0" class="hidden">
  <symbol xmlns="http://www.w3.org/2000/svg" viewBox="0 0 20 20" id="database">
    <title>database_system [#1800]</title>
    <path d="M2 18h16v-8H2v8zm-2 2h20V8H0v12zm5-6h10v-2H5v2zM2 6h16V4H2v2zm2-4h12V0H4v2z" fill-rule="evenodd"></path>
  </symbol>
  <symbol xmlns="http://www.w3.org/2000/svg" viewBox="0 0 20 15" id="email">
    <title>email [#1572]</title>
    <path d="M10 12.474L0 3.649V15h20V3.649l-10 8.825zm.001-2.662L0 .981V0h20v.981l-9.999 8.831z" fill-rule="evenodd"></path>
  </symbol>
  <symbol xmlns="http://www.w3.org/2000/svg" viewBox="0 0 20 20" id="github">
    <title>github [#142]</title>
    <path d="M10 0c5.523 0 10 4.59 10 10.253 0 4.529-2.862 8.371-6.833 9.728-.507.101-.687-.219-.687-.492 0-.338.012-1.442.012-2.814 0-.956-.32-1.58-.679-1.898 2.227-.254 4.567-1.121 4.567-5.059 0-1.12-.388-2.034-1.03-2.752.104-.259.447-1.302-.098-2.714 0 0-.838-.275-2.747 1.051A9.396 9.396 0 0010 4.958a9.375 9.375 0 00-2.503.345C5.586 3.977 4.746 4.252 4.746 4.252c-.543 1.412-.2 2.455-.097 2.714-.639.718-1.03 1.632-1.03 2.752 0 3.928 2.335 4.808 4.556 5.067-.286.256-.545.708-.635 1.371-.57.262-2.018.715-2.91-.852 0 0-.529-.985-1.533-1.057 0 0-.975-.013-.068.623 0 0 .655.315 1.11 1.5 0 0 .587 1.83 3.369 1.21.005.857.014 1.665.014 1.909 0 .271-.184.588-.683.493C2.865 18.627 0 14.783 0 10.253 0 4.59 4.478 0 10 0" fill-rule="evenodd"></path>
  </symbol>
  <symbol xmlns="http://www.w3.org/2000/svg" viewBox="0 0 18 20" id="html">
    <title>html [#124]</title>
    <path d="M14.435 6H5.812l.206 2h8.212c-.12 1.752-.484 5.464-.618 7.153l-4.613 1.298v.004l-.01.005-4.615-1.624L4.058 11H6.32l.16 2.063L8.993 14H9l2.51-.9.258-3.1h-7.81c-.038-.401-.524-5.608-.608-6h11.288c-.063.66-.127 1.338-.202 2zM0 0l1.638 18.148L8.99 20l7.37-1.889L18 0H0z" fill-rule="evenodd"></path>
  </symbol>
  <symbol xmlns="http://www.w3.org/2000/svg" viewBox="0 0 20 20" id="linkedin">
    <title>linkedin [#161]</title>
    <path d="M20 20h-4v-6.999c0-1.92-.847-2.991-2.366-2.991-1.653 0-2.634 1.116-2.634 2.991V20H7V7h4v1.462s1.255-2.202 4.083-2.202C17.912 6.26 20 7.986 20 11.558V20zM2.442 4.921A2.451 2.451 0 010 2.46 2.451 2.451 0 012.442 0a2.451 2.451 0 012.441 2.46 2.45 2.45 0 01-2.441 2.461zM0 20h5V7H0v13z" fill-rule="evenodd"></path>
  </symbol>
  <symbol xmlns="http://www.w3.org/2000/svg" viewBox="0 0 20 17" id="sketch">
    <title>sketch [#125]</title>
    <path d="M4.238 2.35L5.4 5.164H2.733L4.238 2.35zm9.346 4.874h2.993l-5.479 6.024 2.486-6.024zm-4.843 6.039l-5.64-6.039h3.148l2.492 6.039zM7.568 5.164l-1.275-3.09h7.247l-1.275 3.09H7.568zm3.847 2.06l-1.498 3.631-1.499-3.63h2.997zm5.845-2.06h-2.826l1.177-2.853 1.65 2.853zm2.527.272L16.933.268C16.817.087 16.661 0 16.483 0c-.19 0-.406.013-.63.013H4.188c-.22 0-.434-.008-.62-.008a.514.514 0 00-.474.263L.198 5.752a1.256 1.256 0 00.13 1.524l8.693 9.279a1.266 1.266 0 001.938-.011l8.722-9.529a1.32 1.32 0 00.106-1.58z" fill-rule="evenodd"></path>
  </symbol>
  <symbol xmlns="http://www.w3.org/2000/svg" viewBox="0 0 20 18" id="sunset">
    <title>sunset [#1256]</title>
    <path d="M15.646 7.08l2.121-2.121a1 1 0 00-1.414-1.415l-2.121 2.122a.999.999 0 101.414 1.414zM10 5a1 1 0 001-1V1a1 1 0 10-2 0v3a1 1 0 001 1zM4.353 7.08a.999.999 0 101.414-1.414L3.646 3.544a1 1 0 10-1.414 1.415L4.353 7.08zM15 15.804c0-2.757-2.243-4.882-5-4.882s-5 2.164-5 4.921c0 .107.025.157.031.157h9.937a.466.466 0 00.032-.196zM20 17a1 1 0 01-1 1H1a1 1 0 110-2h2.015A.897.897 0 013 15.804c0-3.786 3.005-6.757 6.761-6.879 2.564-.082 4.892 1.421 6.109 3.68C17.154 14.989 17.005 16 16.984 16H19a1 1 0 011 1zm-6-1.005c-1 .003 0-.005 0-.011v.011z" fill-rule="evenodd"></path>
  </symbol>
  <symbol xmlns="http://www.w3.org/2000/svg" viewBox="0 0 20 18" id="swift">
    <title>swift [#146]</title>
    <path d="M12.322 0c8.791 6.025 5.948 12.668 5.948 12.668s2.5 2.844 1.489 5.332c0 0-1.031-1.742-2.76-1.742-1.667 0-2.646 1.742-6 1.742C3.531 18 0 11.712 0 11.712c6.728 4.461 11.322 1.302 11.322 1.302C8.291 11.241 1.843 2.76 1.843 2.76c5.615 4.817 8.042 6.088 8.042 6.088C8.437 7.64 4.374 1.742 4.374 1.742c3.25 3.317 9.708 7.945 9.708 7.945C15.916 4.565 12.322 0 12.322 0" fill-rule="evenodd"></path>
  </symbol>
  <symbol xmlns="http://www.w3.org/2000/svg" viewBox="0 0 20 16" id="twitter">
    <title>twitter [#154]</title>
    <path d="M6.29 16c7.547 0 11.675-6.156 11.675-11.495 0-.175 0-.349-.012-.522A8.265 8.265 0 0020 1.89a8.273 8.273 0 01-2.356.637A4.07 4.07 0 0019.448.293a8.303 8.303 0 01-2.606.98 4.153 4.153 0 00-5.806-.175 4.006 4.006 0 00-1.187 3.86A11.717 11.717 0 011.392.738 4.005 4.005 0 002.663 6.13 4.122 4.122 0 01.8 5.625v.051C.801 7.6 2.178 9.255 4.092 9.636a4.144 4.144 0 01-1.852.069c.537 1.646 2.078 2.773 3.833 2.806A8.315 8.315 0 010 14.185a11.754 11.754 0 006.29 1.812" fill-rule="evenodd"></path>
  </symbol>
  <symbol xmlns="http://www.w3.org/2000/svg" viewBox="0 0 512 512" id="usa">
    <circle cx="256" cy="256" r="256" fill="#fff"></circle>
    <path d="M244.87 256H512c0-23.106-3.08-45.49-8.819-66.783H244.87V256zm0-133.565h229.556a257.35 257.35 0 00-59.07-66.783H244.87v66.783zM256 512c60.249 0 115.626-20.824 159.356-55.652H96.644C140.374 491.176 195.751 512 256 512zM37.574 389.565h436.852a254.474 254.474 0 0028.755-66.783H8.819a254.474 254.474 0 0028.755 66.783z" fill-rude="evenodd"></path>
    <path d="M118.584 39.978h23.329l-21.7 15.765 8.289 25.509-21.699-15.765-21.699 15.765 7.16-22.037a257.407 257.407 0 00-49.652 55.337h7.475l-13.813 10.035a255.58 255.58 0 00-6.194 10.938l6.596 20.301-12.306-8.941a253.567 253.567 0 00-8.372 19.873l7.267 22.368h26.822l-21.7 15.765 8.289 25.509-21.699-15.765-12.998 9.444A258.468 258.468 0 000 256h256V0c-50.572 0-97.715 14.67-137.416 39.978zm9.918 190.422l-21.699-15.765L85.104 230.4l8.289-25.509-21.7-15.765h26.822l8.288-25.509 8.288 25.509h26.822l-21.7 15.765 8.289 25.509zm-8.289-100.083l8.289 25.509-21.699-15.765-21.699 15.765 8.289-25.509-21.7-15.765h26.822l8.288-25.509 8.288 25.509h26.822l-21.7 15.765zM220.328 230.4l-21.699-15.765L176.93 230.4l8.289-25.509-21.7-15.765h26.822l8.288-25.509 8.288 25.509h26.822l-21.7 15.765 8.289 25.509zm-8.289-100.083l8.289 25.509-21.699-15.765-21.699 15.765 8.289-25.509-21.7-15.765h26.822l8.288-25.509 8.288 25.509h26.822l-21.7 15.765zm0-74.574l8.289 25.509-21.699-15.765-21.699 15.765 8.289-25.509-21.7-15.765h26.822l8.288-25.509 8.288 25.509h26.822l-21.7 15.765z" fill-rule="evenodd"></path>
  </symbol>
</svg>

