<svg width="0" height="0" class="hidden">

  <symbol xmlns="http://www.w3.org/2000/svg" viewBox="0 0 20 20" id="database">
    <title>database_system</title>
    <path d="M2 18h16v-8H2v8zm-2 2h20V8H0v12zm5-6h10v-2H5v2zM2 6h16V4H2v2zm2-4h12V0H4v2z" fill-rule="evenodd"></path>
  </symbol>

  <symbol xmlns="http://www.w3.org/2000/svg" viewBox="0 0 20 18" id="swift">
    <title>swift</title>
    <path d="M12.322 0c8.791 6.025 5.948 12.668 5.948 12.668s2.5 2.844 1.489 5.332c0 0-1.031-1.742-2.76-1.742-1.667 0-2.646 1.742-6 1.742C3.531 18 0 11.712 0 11.712c6.728 4.461 11.322 1.302 11.322 1.302C8.291 11.241 1.843 2.76 1.843 2.76c5.615 4.817 8.042 6.088 8.042 6.088C8.437 7.64 4.374 1.742 4.374 1.742c3.25 3.317 9.708 7.945 9.708 7.945C15.916 4.565 12.322 0 12.322 0" fill-rule="evenodd"></path>
  </symbol>

  <symbol xmlns="http://www.w3.org/2000/svg" viewBox="0 0 50 50" id="email">
    <title>icons/email</title>
    <path d="M42 0a8 8 0 018 8v34a8 8 0 01-8 8H8a8 8 0 01-8-8V8a8 8 0 018-8h34zm1 18.068L25 33.953 7 18.068V38.5h36V18.068zm0-6.568H7v1.766l18.002 15.896L43 13.266V11.5z" fill-rule="evenodd"></path>
  </symbol>

  <symbol xmlns="http://www.w3.org/2000/svg" viewBox="0 0 50 50" id="github">
    <title>icons/github</title>
    <path d="M42 0a8 8 0 018 8v34a8 8 0 01-8 8H8a8 8 0 01-8-8V8a8 8 0 018-8h34zM25 6C14.508 6 6 14.721 6 25.48c0 8.608 5.444 15.911 12.994 18.486.948.18 1.298-.422 1.298-.937v-.193c-.004-.613-.018-1.987-.027-3.434-5.286 1.178-6.4-2.3-6.4-2.3-.746-1.94-1.774-2.653-2.043-2.812l-.05-.028-.017-.01c-1.567-1.098-.178-1.177.087-1.182h.042c1.908.136 2.913 2.007 2.913 2.007 1.695 2.978 4.446 2.117 5.529 1.62.171-1.26.663-2.12 1.206-2.606-4.22-.492-8.656-2.164-8.656-9.627 0-2.128.743-3.864 1.957-5.229-.196-.492-.847-2.473.184-5.156 0 0 1.596-.523 5.227 1.997A17.813 17.813 0 0125 15.42c1.615.008 3.241.224 4.76.656 3.022-2.1 4.632-2.087 5.084-2.024l.066.01a.618.618 0 01.069.017c1.035 2.683.384 4.664.186 5.156 1.22 1.365 1.957 3.101 1.957 5.23 0 7.481-4.446 9.129-8.677 9.611.682.604 1.29 1.79 1.29 3.606v.616c-.003 2.015-.018 3.656-.022 4.439l-.001.292c0 .519.342 1.127 1.305.935C38.562 41.385 44 34.086 44 25.48 44 14.72 35.494 6 25 6z" fill-rule="evenodd"></path>
  </symbol>

  <symbol xmlns="http://www.w3.org/2000/svg" viewBox="0 0 50 50" id="twitter">
    <title>icons/twitter</title>
    <path d="M42 0a8 8 0 018 8v34a8 8 0 01-8 8H8a8 8 0 01-8-8V8a8 8 0 018-8h34zM26.968 12.093a7.651 7.651 0 00-2.255 7.359c-6.268-.312-12.109-3.236-16.068-8.046-2.07 3.52-1.011 8.02 2.415 10.28a7.811 7.811 0 01-3.54-.964v.098c.002 3.665 2.618 6.822 6.255 7.548a7.85 7.85 0 01-3.519.132c1.02 3.138 3.948 5.287 7.283 5.349A15.765 15.765 0 016 37.04a22.278 22.278 0 0011.951 3.453v.006c14.34 0 22.182-11.736 22.182-21.911 0-.335 0-.667-.022-.997A15.73 15.73 0 0044 13.606a15.678 15.678 0 01-4.476 1.212 7.754 7.754 0 003.427-4.26A15.743 15.743 0 0138 12.428c-2.953-3.101-7.89-3.252-11.032-.335z" fill-rule="evenodd"></path>
  </symbol>

  <symbol xmlns="http://www.w3.org/2000/svg" viewBox="0 0 40 40" id="stack-overflow">
    <title>icons/stack-overflow</title>
    <path d="M6.4,0 L33.6,0 C37.1346224,-6.49299601e-16 40,2.8653776 40,6.4 L40,33.6 C40,37.1346224 37.1346224,40 33.6,40 L6.4,40 C2.8653776,40 2.20922324e-15,37.1346224 0,33.6 L0,6.4 C-4.32866401e-16,2.8653776 2.8653776,2.42565644e-15 6.4,0 Z M10.4227086,23.3660508 L10.4227086,30.5993072 L27.4445964,30.5993072 L27.4445964,23.3660508 L29.8673051,23.3660508 L29.8673051,33 L8,33 L8,23.3660508 L10.4227086,23.3660508 Z M24.9904241,25.7667436 L24.9904241,28.1674365 L12.8454172,28.1674365 L12.8454172,25.7667436 L24.9904241,25.7667436 Z M13.6005472,20.3106236 L25.493844,22.7736721 L24.9904241,25.1431871 L13.0971272,22.6801386 L13.6005472,20.3106236 Z M15.6771546,14.8545035 L26.6894665,19.9676674 L25.6826265,22.1501155 L14.6703146,17.0681293 L15.6771546,14.8545035 Z M19.2640219,9.86605081 L28.6087551,17.5669746 L27.0670315,19.4064665 L17.7222982,11.7055427 L19.2640219,9.86605081 Z M23.7633379,6 L31,15.665127 L29.0492476,17.0993072 L21.8125855,7.43418014 L23.7633379,6 Z" fill-rule="evenodd"></path>
  </symbol>

  <symbol xmlns="http://www.w3.org/2000/svg" viewBox="0 0 32 45" id="container">
    <title>icons/container</title>
    <path d="M22.5,11.25 L13.5,11.25 L13.5,15.75 L22.5,15.75 L22.5,20.25 L13.5,20.25 L13.5,24.75 L22.5,24.75 L22.5,29.25 L13.5,29.25 L13.5,33.75 L22.5,33.75 L22.5,40.5 L9,40.5 L9,4.5 L22.5,4.5 L22.5,11.25 Z M0,0 L0,4.5 L4.5,4.5 L4.5,45 L27,45 L27,4.5 L31.5,4.5 L31.5,0 L0,0 Z" fill-rule="evenodd"></path>

  </symbol>


  <symbol xmlns="http://www.w3.org/2000/svg" viewBox="0 0 47 45" id="design">
    <title>icons/design</title>
    <path d="M6.83008731,30.1007388 L20.9226636,11.1680529 L20.9226636,38.3582167 L6.83008731,30.1007388 Z M39.6670455,30.1007388 L25.5721444,38.3582167 L25.5721444,11.1680529 L39.6670455,30.1007388 Z M25.5744692,3.38017255 L23.247404,0 L20.9226636,3.38017255 L0,31.4886088 L20.9226636,43.7469649 L23.247404,45 L25.5744692,43.7469649 L46.4948081,31.4886088 L25.5744692,3.38017255 Z" fill-rule="evenodd"></path>

  </symbol>

  <symbol xmlns="http://www.w3.org/2000/svg" viewBox="0 0 75 45" id="money">
    <title>icons/money</title>
    <path d="M30,22.5 C30,18.35625 33.35625,15 37.5,15 C41.64375,15 45,18.35625 45,22.5 C45,26.64375 41.64375,30 37.5,30 C33.35625,30 30,26.64375 30,22.5 L30,22.5 Z M61.28625,7.5 L67.5,7.5 L67.5,13.71375 L61.28625,7.5 Z M67.5,37.5 L61.28625,37.5 L67.5,31.28625 L67.5,37.5 Z M7.5,37.5 L7.5,31.28625 L13.71375,37.5 L7.5,37.5 Z M7.5,7.5 L13.71375,7.5 L7.5,13.71375 L7.5,7.5 Z M50.68125,7.5 L65.68125,22.5 L50.68125,37.5 L24.31875,37.5 L9.31875,22.5 L24.31875,7.5 L50.68125,7.5 Z M0,45 L75,45 L75,0 L0,0 L0,45 Z" fill-rule="evenodd"></path>

  </symbol>

  <symbol xmlns="http://www.w3.org/2000/svg" viewBox="0 0 45 45" id="shop">
    <title>icons/shop</title>
    <path d="M39.82525,4.5 L32.28775,4.5 C32.81875,8.1315 33.2845,13.0905 32.5015,16.10325 C32.99425,16.14375 33.5095,16.1775 34.09675,16.1775 C37.18825,16.1775 39.43825,15.51825 40.22125,15.075 C40.7275,13.53825 40.53625,9.108 39.82525,4.5 L39.82525,4.5 Z M36.00025,20.59875 C33.45325,20.79 30.58675,20.637 28.2265,19.84275 C24.6175,20.92275 19.56175,20.99025 16.1485,19.8405 C14.22475,20.41875 11.752,20.75625 9.00025,20.65275 L9.00025,40.5 L20.25025,40.5 L20.25025,31.5 L24.75025,31.5 L24.75025,40.5 L36.00025,40.5 L36.00025,20.59875 Z M4.8175,15.31125 C5.41825,15.6465 7.15975,16.1775 9.94075,16.1775 C10.8655,16.1775 11.70475,16.1145 12.463,16.02 C11.76775,12.951 12.1705,8.0775 12.64075,4.5 L5.08525,4.5 C4.435,9.23625 4.2955,13.78125 4.8175,15.31125 L4.8175,15.31125 Z M16.9,15.31125 C19.18825,16.587 25.846,16.37775 28.14775,15.075 C28.654,13.53825 28.46275,9.108 27.75175,4.5 L17.16775,4.5 C16.5175,9.23625 16.378,13.78125 16.9,15.31125 L16.9,15.31125 Z M43.57375,18.15075 C42.89425,18.83025 41.80525,19.37025 40.50025,19.782 L40.50025,45 L4.50025,45 L4.50025,19.98225 C3.08275,19.566 1.92625,18.963 1.267,18.15075 C-1.58375,14.6205 1.267,0 1.267,0 L43.57375,0 C43.57375,0 46.78225,14.94225 43.57375,18.15075 L43.57375,18.15075 Z M13.50025,31.5 L18.00025,31.5 L18.00025,22.5 L13.50025,22.5 L13.50025,31.5 Z M27.00025,31.5 L31.50025,31.5 L31.50025,22.5 L27.00025,22.5 L27.00025,31.5 Z" fill-rule="evenodd"></path>
  </symbol>

</svg>