<svg width="0" height="0" class="hidden">

  <symbol xmlns="http://www.w3.org/2000/svg" viewBox="0 0 20 20" id="database">
    <title>database_system</title>
    <path d="M2 18h16v-8H2v8zm-2 2h20V8H0v12zm5-6h10v-2H5v2zM2 6h16V4H2v2zm2-4h12V0H4v2z" fill-rule="evenodd"></path>
  </symbol>

  <symbol xmlns="http://www.w3.org/2000/svg" viewBox="0 0 18 20" id="html">
    <title>html</title>
    <path d="M14.435 6H5.812l.206 2h8.212c-.12 1.752-.484 5.464-.618 7.153l-4.613 1.298v.004l-.01.005-4.615-1.624L4.058 11H6.32l.16 2.063L8.993 14H9l2.51-.9.258-3.1h-7.81c-.038-.401-.524-5.608-.608-6h11.288c-.063.66-.127 1.338-.202 2zM0 0l1.638 18.148L8.99 20l7.37-1.889L18 0H0z" fill-rule="evenodd"></path>
  </symbol>

  <symbol xmlns="http://www.w3.org/2000/svg" viewBox="0 0 20 17" id="sketch">
    <title>sketch</title>
    <path d="M4.238 2.35L5.4 5.164H2.733L4.238 2.35zm9.346 4.874h2.993l-5.479 6.024 2.486-6.024zm-4.843 6.039l-5.64-6.039h3.148l2.492 6.039zM7.568 5.164l-1.275-3.09h7.247l-1.275 3.09H7.568zm3.847 2.06l-1.498 3.631-1.499-3.63h2.997zm5.845-2.06h-2.826l1.177-2.853 1.65 2.853zm2.527.272L16.933.268C16.817.087 16.661 0 16.483 0c-.19 0-.406.013-.63.013H4.188c-.22 0-.434-.008-.62-.008a.514.514 0 00-.474.263L.198 5.752a1.256 1.256 0 00.13 1.524l8.693 9.279a1.266 1.266 0 001.938-.011l8.722-9.529a1.32 1.32 0 00.106-1.58z" fill-rule="evenodd"></path>
  </symbol>

  <symbol xmlns="http://www.w3.org/2000/svg" viewBox="0 0 20 18" id="swift">
    <title>swift</title>
    <path d="M12.322 0c8.791 6.025 5.948 12.668 5.948 12.668s2.5 2.844 1.489 5.332c0 0-1.031-1.742-2.76-1.742-1.667 0-2.646 1.742-6 1.742C3.531 18 0 11.712 0 11.712c6.728 4.461 11.322 1.302 11.322 1.302C8.291 11.241 1.843 2.76 1.843 2.76c5.615 4.817 8.042 6.088 8.042 6.088C8.437 7.64 4.374 1.742 4.374 1.742c3.25 3.317 9.708 7.945 9.708 7.945C15.916 4.565 12.322 0 12.322 0" fill-rule="evenodd"></path>
  </symbol>

  <symbol xmlns="http://www.w3.org/2000/svg" viewBox="0 0 20 18" id="sun">
    <title>sun</title>
    <path d="M15.646 7.08l2.121-2.121a1 1 0 00-1.414-1.415l-2.121 2.122a.999.999 0 101.414 1.414zM10 5a1 1 0 001-1V1a1 1 0 10-2 0v3a1 1 0 001 1zM4.353 7.08a.999.999 0 101.414-1.414L3.646 3.544a1 1 0 10-1.414 1.415L4.353 7.08zM15 15.804c0-2.757-2.243-4.882-5-4.882s-5 2.164-5 4.921c0 .107.025.157.031.157h9.937a.466.466 0 00.032-.196zM20 17a1 1 0 01-1 1H1a1 1 0 110-2h2.015A.897.897 0 013 15.804c0-3.786 3.005-6.757 6.761-6.879 2.564-.082 4.892 1.421 6.109 3.68C17.154 14.989 17.005 16 16.984 16H19a1 1 0 011 1zm-6-1.005c-1 .003 0-.005 0-.011v.011z" fill-rule="evenodd"></path>
  </symbol>

  <symbol xmlns="http://www.w3.org/2000/svg" viewBox="0 0 512 512" id="flag">
    <circle cx="256" cy="256" r="256" fill="#fff"></circle>
    <path d="M244.87 256H512c0-23.106-3.08-45.49-8.819-66.783H244.87V256zm0-133.565h229.556a257.35 257.35 0 00-59.07-66.783H244.87v66.783zM256 512c60.249 0 115.626-20.824 159.356-55.652H96.644C140.374 491.176 195.751 512 256 512zM37.574 389.565h436.852a254.474 254.474 0 0028.755-66.783H8.819a254.474 254.474 0 0028.755 66.783z"></path>
    <path d="M118.584 39.978h23.329l-21.7 15.765 8.289 25.509-21.699-15.765-21.699 15.765 7.16-22.037a257.407 257.407 0 00-49.652 55.337h7.475l-13.813 10.035a255.58 255.58 0 00-6.194 10.938l6.596 20.301-12.306-8.941a253.567 253.567 0 00-8.372 19.873l7.267 22.368h26.822l-21.7 15.765 8.289 25.509-21.699-15.765-12.998 9.444A258.468 258.468 0 000 256h256V0c-50.572 0-97.715 14.67-137.416 39.978zm9.918 190.422l-21.699-15.765L85.104 230.4l8.289-25.509-21.7-15.765h26.822l8.288-25.509 8.288 25.509h26.822l-21.7 15.765 8.289 25.509zm-8.289-100.083l8.289 25.509-21.699-15.765-21.699 15.765 8.289-25.509-21.7-15.765h26.822l8.288-25.509 8.288 25.509h26.822l-21.7 15.765zM220.328 230.4l-21.699-15.765L176.93 230.4l8.289-25.509-21.7-15.765h26.822l8.288-25.509 8.288 25.509h26.822l-21.7 15.765 8.289 25.509zm-8.289-100.083l8.289 25.509-21.699-15.765-21.699 15.765 8.289-25.509-21.7-15.765h26.822l8.288-25.509 8.288 25.509h26.822l-21.7 15.765zm0-74.574l8.289 25.509-21.699-15.765-21.699 15.765 8.289-25.509-21.7-15.765h26.822l8.288-25.509 8.288 25.509h26.822l-21.7 15.765z" fill-rule="evenodd"></path>
  </symbol>

  <symbol xmlns="http://www.w3.org/2000/svg" viewBox="0 0 20 20" id="github-button">
    <title>github</title>
    <path d="M10 0c5.523 0 10 4.59 10 10.253 0 4.529-2.862 8.371-6.833 9.728-.507.101-.687-.219-.687-.492 0-.338.012-1.442.012-2.814 0-.956-.32-1.58-.679-1.898 2.227-.254 4.567-1.121 4.567-5.059 0-1.12-.388-2.034-1.03-2.752.104-.259.447-1.302-.098-2.714 0 0-.838-.275-2.747 1.051A9.396 9.396 0 0010 4.958a9.375 9.375 0 00-2.503.345C5.586 3.977 4.746 4.252 4.746 4.252c-.543 1.412-.2 2.455-.097 2.714-.639.718-1.03 1.632-1.03 2.752 0 3.928 2.335 4.808 4.556 5.067-.286.256-.545.708-.635 1.371-.57.262-2.018.715-2.91-.852 0 0-.529-.985-1.533-1.057 0 0-.975-.013-.068.623 0 0 .655.315 1.11 1.5 0 0 .587 1.83 3.369 1.21.005.857.014 1.665.014 1.909 0 .271-.184.588-.683.493C2.865 18.627 0 14.783 0 10.253 0 4.59 4.478 0 10 0" fill-rule="evenodd"></path>
  </symbol>

  <symbol xmlns="http://www.w3.org/2000/svg" viewBox="0 0 50 50" id="email">
    <title>icons/email</title>
    <path d="M42 0a8 8 0 018 8v34a8 8 0 01-8 8H8a8 8 0 01-8-8V8a8 8 0 018-8h34zm1 18.068L25 33.953 7 18.068V38.5h36V18.068zm0-6.568H7v1.766l18.002 15.896L43 13.266V11.5z" fill-rule="evenodd"></path>
  </symbol>

  <symbol xmlns="http://www.w3.org/2000/svg" viewBox="0 0 50 50" id="github">
    <title>icons/github</title>
    <path d="M42 0a8 8 0 018 8v34a8 8 0 01-8 8H8a8 8 0 01-8-8V8a8 8 0 018-8h34zM25 6C14.508 6 6 14.721 6 25.48c0 8.608 5.444 15.911 12.994 18.486.948.18 1.298-.422 1.298-.937v-.193c-.004-.613-.018-1.987-.027-3.434-5.286 1.178-6.4-2.3-6.4-2.3-.746-1.94-1.774-2.653-2.043-2.812l-.05-.028-.017-.01c-1.567-1.098-.178-1.177.087-1.182h.042c1.908.136 2.913 2.007 2.913 2.007 1.695 2.978 4.446 2.117 5.529 1.62.171-1.26.663-2.12 1.206-2.606-4.22-.492-8.656-2.164-8.656-9.627 0-2.128.743-3.864 1.957-5.229-.196-.492-.847-2.473.184-5.156 0 0 1.596-.523 5.227 1.997A17.813 17.813 0 0125 15.42c1.615.008 3.241.224 4.76.656 3.022-2.1 4.632-2.087 5.084-2.024l.066.01a.618.618 0 01.069.017c1.035 2.683.384 4.664.186 5.156 1.22 1.365 1.957 3.101 1.957 5.23 0 7.481-4.446 9.129-8.677 9.611.682.604 1.29 1.79 1.29 3.606v.616c-.003 2.015-.018 3.656-.022 4.439l-.001.292c0 .519.342 1.127 1.305.935C38.562 41.385 44 34.086 44 25.48 44 14.72 35.494 6 25 6z" fill-rule="evenodd"></path>
  </symbol>

  <symbol xmlns="http://www.w3.org/2000/svg" viewBox="0 0 50 50" id="linkedin">
    <title>icons/linkedin</title>
    <path d="M42 0a8 8 0 018 8v34a8 8 0 01-8 8H8a8 8 0 01-8-8V8a8 8 0 018-8h34zm-7.85 18.268c-5.091 0-7.35 3.964-7.35 3.964V19.6h-7.2V43h7.2V30.402c0-3.375 1.766-5.384 4.741-5.384 2.734 0 4.259 1.928 4.259 5.384V43H43V27.804c0-6.43-3.758-9.536-8.85-9.536zM16 19.6H7V43h9V19.6zM11.396 7C8.967 7 7 8.984 7 11.428c0 2.446 1.967 4.43 4.396 4.43 2.426 0 4.395-1.984 4.393-4.43C15.79 8.984 13.822 7 11.396 7z" fill-rule="evenodd"></path>
  </symbol>

  <symbol xmlns="http://www.w3.org/2000/svg" viewBox="0 0 50 50" id="twitter">
    <title>icons/twitter</title>
    <path d="M42 0a8 8 0 018 8v34a8 8 0 01-8 8H8a8 8 0 01-8-8V8a8 8 0 018-8h34zM26.968 12.093a7.651 7.651 0 00-2.255 7.359c-6.268-.312-12.109-3.236-16.068-8.046-2.07 3.52-1.011 8.02 2.415 10.28a7.811 7.811 0 01-3.54-.964v.098c.002 3.665 2.618 6.822 6.255 7.548a7.85 7.85 0 01-3.519.132c1.02 3.138 3.948 5.287 7.283 5.349A15.765 15.765 0 016 37.04a22.278 22.278 0 0011.951 3.453v.006c14.34 0 22.182-11.736 22.182-21.911 0-.335 0-.667-.022-.997A15.73 15.73 0 0044 13.606a15.678 15.678 0 01-4.476 1.212 7.754 7.754 0 003.427-4.26A15.743 15.743 0 0138 12.428c-2.953-3.101-7.89-3.252-11.032-.335z" fill-rule="evenodd"></path>
  </symbol>

  <symbol xmlns="http://www.w3.org/2000/svg" viewBox="0 0 40 40" id="stack-overflow">
    <title>icons/stack-overflow</title>
    <path d="M6.4,0 L33.6,0 C37.1346224,-6.49299601e-16 40,2.8653776 40,6.4 L40,33.6 C40,37.1346224 37.1346224,40 33.6,40 L6.4,40 C2.8653776,40 2.20922324e-15,37.1346224 0,33.6 L0,6.4 C-4.32866401e-16,2.8653776 2.8653776,2.42565644e-15 6.4,0 Z M10.4227086,23.3660508 L10.4227086,30.5993072 L27.4445964,30.5993072 L27.4445964,23.3660508 L29.8673051,23.3660508 L29.8673051,33 L8,33 L8,23.3660508 L10.4227086,23.3660508 Z M24.9904241,25.7667436 L24.9904241,28.1674365 L12.8454172,28.1674365 L12.8454172,25.7667436 L24.9904241,25.7667436 Z M13.6005472,20.3106236 L25.493844,22.7736721 L24.9904241,25.1431871 L13.0971272,22.6801386 L13.6005472,20.3106236 Z M15.6771546,14.8545035 L26.6894665,19.9676674 L25.6826265,22.1501155 L14.6703146,17.0681293 L15.6771546,14.8545035 Z M19.2640219,9.86605081 L28.6087551,17.5669746 L27.0670315,19.4064665 L17.7222982,11.7055427 L19.2640219,9.86605081 Z M23.7633379,6 L31,15.665127 L29.0492476,17.0993072 L21.8125855,7.43418014 L23.7633379,6 Z" fill-rule="evenodd"></path>
  </symbol>

</svg>