<svg width="0" height="0" class="hidden">
  <symbol xmlns="http://www.w3.org/2000/svg" viewBox="0 0 20 20" id="database">
    <title>database_system [#1800]</title>
    <path d="M2 18h16v-8H2v8zm-2 2h20V8H0v12zm5-6h10v-2H5v2zM2 6h16V4H2v2zm2-4h12V0H4v2z" fill-rule="evenodd"></path>
  </symbol>
  <symbol xmlns="http://www.w3.org/2000/svg" viewBox="0 0 20 15" id="email">
    <title>email [#1572]</title>
    <path d="M10 12.474L0 3.649V15h20V3.649l-10 8.825zm.001-2.662L0 .981V0h20v.981l-9.999 8.831z" fill-rule="evenodd"></path>
  </symbol>
  <symbol xmlns="http://www.w3.org/2000/svg" viewBox="0 0 20 20" id="github">
    <title>github [#142]</title>
    <path d="M10 0c5.523 0 10 4.59 10 10.253 0 4.529-2.862 8.371-6.833 9.728-.507.101-.687-.219-.687-.492 0-.338.012-1.442.012-2.814 0-.956-.32-1.58-.679-1.898 2.227-.254 4.567-1.121 4.567-5.059 0-1.12-.388-2.034-1.03-2.752.104-.259.447-1.302-.098-2.714 0 0-.838-.275-2.747 1.051A9.396 9.396 0 0010 4.958a9.375 9.375 0 00-2.503.345C5.586 3.977 4.746 4.252 4.746 4.252c-.543 1.412-.2 2.455-.097 2.714-.639.718-1.03 1.632-1.03 2.752 0 3.928 2.335 4.808 4.556 5.067-.286.256-.545.708-.635 1.371-.57.262-2.018.715-2.91-.852 0 0-.529-.985-1.533-1.057 0 0-.975-.013-.068.623 0 0 .655.315 1.11 1.5 0 0 .587 1.83 3.369 1.21.005.857.014 1.665.014 1.909 0 .271-.184.588-.683.493C2.865 18.627 0 14.783 0 10.253 0 4.59 4.478 0 10 0" fill-rule="evenodd"></path>
  </symbol>
  <symbol xmlns="http://www.w3.org/2000/svg" viewBox="0 0 18 20" id="html">
    <title>html [#124]</title>
    <path d="M14.435 6H5.812l.206 2h8.212c-.12 1.752-.484 5.464-.618 7.153l-4.613 1.298v.004l-.01.005-4.615-1.624L4.058 11H6.32l.16 2.063L8.993 14H9l2.51-.9.258-3.1h-7.81c-.038-.401-.524-5.608-.608-6h11.288c-.063.66-.127 1.338-.202 2zM0 0l1.638 18.148L8.99 20l7.37-1.889L18 0H0z" fill-rule="evenodd"></path>
  </symbol>
  <symbol xmlns="http://www.w3.org/2000/svg" viewBox="0 0 20 20" id="linkedin">
    <title>linkedin [#161]</title>
    <path d="M20 20h-4v-6.999c0-1.92-.847-2.991-2.366-2.991-1.653 0-2.634 1.116-2.634 2.991V20H7V7h4v1.462s1.255-2.202 4.083-2.202C17.912 6.26 20 7.986 20 11.558V20zM2.442 4.921A2.451 2.451 0 010 2.46 2.451 2.451 0 012.442 0a2.451 2.451 0 012.441 2.46 2.45 2.45 0 01-2.441 2.461zM0 20h5V7H0v13z" fill-rule="evenodd"></path>
  </symbol>
  <symbol xmlns="http://www.w3.org/2000/svg" viewBox="0 0 20 17" id="sketch">
    <title>sketch [#125]</title>
    <path d="M4.238 2.35L5.4 5.164H2.733L4.238 2.35zm9.346 4.874h2.993l-5.479 6.024 2.486-6.024zm-4.843 6.039l-5.64-6.039h3.148l2.492 6.039zM7.568 5.164l-1.275-3.09h7.247l-1.275 3.09H7.568zm3.847 2.06l-1.498 3.631-1.499-3.63h2.997zm5.845-2.06h-2.826l1.177-2.853 1.65 2.853zm2.527.272L16.933.268C16.817.087 16.661 0 16.483 0c-.19 0-.406.013-.63.013H4.188c-.22 0-.434-.008-.62-.008a.514.514 0 00-.474.263L.198 5.752a1.256 1.256 0 00.13 1.524l8.693 9.279a1.266 1.266 0 001.938-.011l8.722-9.529a1.32 1.32 0 00.106-1.58z" fill-rule="evenodd"></path>
  </symbol>
  <symbol xmlns="http://www.w3.org/2000/svg" viewBox="0 0 20 18" id="sunset">
    <title>sunset [#1256]</title>
    <path d="M15.646 7.08l2.121-2.121a1 1 0 00-1.414-1.415l-2.121 2.122a.999.999 0 101.414 1.414zM10 5a1 1 0 001-1V1a1 1 0 10-2 0v3a1 1 0 001 1zM4.353 7.08a.999.999 0 101.414-1.414L3.646 3.544a1 1 0 10-1.414 1.415L4.353 7.08zM15 15.804c0-2.757-2.243-4.882-5-4.882s-5 2.164-5 4.921c0 .107.025.157.031.157h9.937a.466.466 0 00.032-.196zM20 17a1 1 0 01-1 1H1a1 1 0 110-2h2.015A.897.897 0 013 15.804c0-3.786 3.005-6.757 6.761-6.879 2.564-.082 4.892 1.421 6.109 3.68C17.154 14.989 17.005 16 16.984 16H19a1 1 0 011 1zm-6-1.005c-1 .003 0-.005 0-.011v.011z" fill-rule="evenodd"></path>
  </symbol>
  <symbol xmlns="http://www.w3.org/2000/svg" viewBox="0 0 20 18" id="swift">
    <title>swift [#146]</title>
    <path d="M12.322 0c8.791 6.025 5.948 12.668 5.948 12.668s2.5 2.844 1.489 5.332c0 0-1.031-1.742-2.76-1.742-1.667 0-2.646 1.742-6 1.742C3.531 18 0 11.712 0 11.712c6.728 4.461 11.322 1.302 11.322 1.302C8.291 11.241 1.843 2.76 1.843 2.76c5.615 4.817 8.042 6.088 8.042 6.088C8.437 7.64 4.374 1.742 4.374 1.742c3.25 3.317 9.708 7.945 9.708 7.945C15.916 4.565 12.322 0 12.322 0" fill-rule="evenodd"></path>
  </symbol>
  <symbol xmlns="http://www.w3.org/2000/svg" viewBox="0 0 20 16" id="twitter">
    <title>twitter [#154]</title>
    <path d="M6.29 16c7.547 0 11.675-6.156 11.675-11.495 0-.175 0-.349-.012-.522A8.265 8.265 0 0020 1.89a8.273 8.273 0 01-2.356.637A4.07 4.07 0 0019.448.293a8.303 8.303 0 01-2.606.98 4.153 4.153 0 00-5.806-.175 4.006 4.006 0 00-1.187 3.86A11.717 11.717 0 011.392.738 4.005 4.005 0 002.663 6.13 4.122 4.122 0 01.8 5.625v.051C.801 7.6 2.178 9.255 4.092 9.636a4.144 4.144 0 01-1.852.069c.537 1.646 2.078 2.773 3.833 2.806A8.315 8.315 0 010 14.185a11.754 11.754 0 006.29 1.812" fill-rule="evenodd"></path>
  </symbol>
  <symbol xmlns="http://www.w3.org/2000/svg" xmlns:xlink="http://www.w3.org/1999/xlink" viewBox="0 0 139 139" id="usa">
    <title>USA</title>
    <defs>
      <circle id="a" cx="67.5" cy="67.5" r="67.5"></circle>
    </defs>
    <g transform="translate(2 2)" fill="none" fill-rule="evenodd">
      <mask id="b" fill="#fff">
        <use xlink:href="#a"></use>
      </mask>
      <circle stroke="#000" stroke-width="1.5" cx="67.5" cy="67.5" r="68.25"></circle>
      <path d="M-27.567-4.023h97.053v75.51h-97.053v-75.51zm12.348 5.808h-3.39l-.972-2.904-.969 2.904h-3.387l2.664 1.941-.969 3.384 2.661-2.178 2.664 1.935-.969-3.141 2.667-1.941zM64.89 63.984h-3.15l-1.209-2.904-.972 2.904h-3.141l2.661 1.938-1.212 3.387 2.664-2.178 2.664 2.178-.972-3.387 2.667-1.938zm-15.972 0h-3.393l-.966-2.904-.972 2.904H40.2l2.664 1.938-.969 3.387 2.664-2.178 2.661 2.178-.969-3.387 2.667-1.938zm-16.221 0h-3.144l-.969-2.904-.969 2.904h-3.387l2.664 1.938-1.212 3.387 2.904-2.178 2.661 2.178-.969-3.387 2.421-1.938zm-15.975 0h-3.147l-.966-2.904-1.209 2.904H8.253l2.664 1.938-1.215 3.387 2.907-2.178 2.664 2.178-1.212-3.387 2.661-1.938zm-15.972 0h-3.147l-1.209-2.904-.966 2.904h-3.147l2.664 1.938-1.215 3.387 2.664-2.178 2.661 2.178-.966-3.387L.75 63.984zm-15.969 0h-3.39l-.972-2.904-.969 2.904h-3.387l2.664 1.938-.969 3.387 2.661-2.178 2.664 2.178-.969-3.387 2.667-1.938zm71.637-7.743h-3.147l-.969-2.904-.969 2.904h-3.39l2.664 1.941-1.209 3.384 2.904-2.178 2.661 1.932-1.212-3.138 2.667-1.941zm-15.975 0h-3.144l-1.212-2.904-.966 2.904h-3.153l2.667 1.941-1.209 3.384 2.661-2.178 2.661 1.932-.969-3.138 2.664-1.941zm-15.975 0h-3.39l-.963-2.904-.969 2.904h-3.39l2.664 1.941-.972 3.384 2.667-2.178 2.658 1.932-.966-3.138 2.661-1.941zm-15.972 0H5.109l-.969-2.904-.966 2.904h-3.39l2.661 1.941-.972 3.384 2.667-2.178 2.661 1.932-.972-3.138 2.667-1.941zm-16.215 0h-3.147l-.966-2.904-.972 2.904h-3.387l2.661 1.941-1.212 3.384 2.91-2.178 2.658 1.932-1.209-3.138 2.664-1.941zm64.137-15.489h-3.147l-.969-2.901-.969 2.901h-3.39l2.664 1.938-1.209 3.141 2.904-1.932 2.661 1.932-1.212-3.141 2.667-1.938zm-15.975 0h-3.144l-1.212-2.901-.966 2.901h-3.153l2.667 1.938-1.209 3.141 2.661-1.932 2.661 1.932-.969-3.141 2.664-1.938zm-15.975 0h-3.39l-.963-2.901-.969 2.901h-3.39l2.664 1.938-.972 3.141 2.667-1.932 2.658 1.932-.966-3.141 2.661-1.938zm-15.972 0H5.109l-.969-2.901-.966 2.901h-3.39l2.661 1.938-.972 3.141 2.667-1.932 2.661 1.932-.972-3.141 2.667-1.938zm-16.215 0h-3.147l-.966-2.901-.972 2.901h-3.387l2.661 1.938-1.212 3.141 2.91-1.932 2.658 1.932-1.209-3.141 2.664-1.938zm64.137-15.489h-3.147l-.969-3.147-.969 3.147h-3.39l2.664 1.932-1.209 3.15 2.904-1.935 2.661 1.935-1.212-3.15 2.667-1.932zm-15.975 0h-3.144l-1.212-3.147-.966 3.147h-3.153l2.667 1.932-1.209 3.15 2.661-1.935 2.661 1.935-.969-3.15 2.664-1.932zm-15.975 0h-3.39l-.963-3.147-.969 3.147h-3.39l2.664 1.932-.972 3.15 2.667-1.935 2.658 1.935-.966-3.15 2.661-1.932zm-15.972 0H5.109l-.969-3.147-.966 3.147h-3.39l2.661 1.932-.972 3.15L4.14 28.41l2.661 1.935-.972-3.15 2.667-1.932zm-16.215 0h-3.147l-.966-3.147-.972 3.147h-3.387l2.661 1.932-1.212 3.15 2.91-1.935 2.658 1.935-1.209-3.15 2.664-1.932zM56.418 9.528h-3.147l-.969-2.901-.969 2.901h-3.39l2.664 1.941-1.209 3.387 2.904-2.178 2.661 2.178-1.212-3.387 2.667-1.941zm-15.975 0h-3.144l-1.212-2.901-.966 2.901h-3.153l2.667 1.941-1.209 3.387 2.661-2.178 2.661 2.178-.969-3.387 2.664-1.941zm-15.975 0h-3.39l-.963-2.901-.969 2.901h-3.39l2.664 1.941-.972 3.387 2.667-2.178 2.658 2.178-.966-3.387 2.661-1.941zm-15.972 0H5.109L4.14 6.627l-.966 2.901h-3.39l2.661 1.941-.972 3.387 2.667-2.178 2.661 2.178-.972-3.387 2.667-1.941zm-16.215 0h-3.147l-.966-2.901-.972 2.901h-3.387l2.661 1.941-1.212 3.387 2.91-2.178 2.658 2.178-1.209-3.387 2.664-1.941zm72.609 38.97h-3.15l-1.209-2.904-.972 2.904h-3.141l2.661 1.938-1.212 3.141 2.664-1.932 2.664 1.932-.972-3.141 2.667-1.938zm-15.972 0h-3.393l-.966-2.904-.972 2.904H40.2l2.664 1.938-.969 3.141 2.664-1.932 2.661 1.932-.969-3.141 2.667-1.938zm-16.221 0h-3.144l-.969-2.904-.969 2.904h-3.387l2.664 1.938-1.212 3.141 2.904-1.932 2.661 1.932-.969-3.141 2.421-1.938zm-15.975 0h-3.147l-.966-2.904-1.209 2.904H8.253l2.664 1.938-1.215 3.141 2.907-1.932 2.664 1.932-1.212-3.141 2.661-1.938zm-15.972 0h-3.147l-1.209-2.904-.966 2.904h-3.147l2.664 1.938-1.215 3.141 2.664-1.932 2.661 1.932-.966-3.141L.75 48.498zm-15.969 0h-3.39l-.972-2.904-.969 2.904h-3.387l2.664 1.938-.969 3.141 2.661-1.932 2.664 1.932-.969-3.141 2.667-1.938zM64.89 33.006h-3.15l-1.209-3.147-.972 3.147h-3.141l2.661 1.941-1.212 3.141 2.664-1.932 2.664 1.932-.972-3.141 2.667-1.941zm-15.972 0h-3.393l-.966-3.147-.972 3.147H40.2l2.664 1.941-.969 3.141 2.664-1.932 2.661 1.932-.969-3.141 2.667-1.941zm-16.221 0h-3.144l-.969-3.147-.969 3.147h-3.387l2.664 1.941-1.212 3.141 2.904-1.932 2.661 1.932-.969-3.141 2.421-1.941zm-15.975 0h-3.147l-.966-3.147-1.209 3.147H8.253l2.664 1.941-1.215 3.141 2.907-1.932 2.664 1.932-1.212-3.141 2.661-1.941zm-15.972 0h-3.147l-1.209-3.147-.966 3.147h-3.147l2.664 1.941-1.215 3.141 2.664-1.932 2.661 1.932-.966-3.141L.75 33.006zm-15.969 0h-3.39l-.972-3.147-.969 3.147h-3.387l2.664 1.941-.969 3.141 2.661-1.932 2.664 1.932-.969-3.141 2.667-1.941zM64.89 17.52h-3.15l-1.209-3.147-.972 3.147h-3.141l2.661 1.935-1.212 3.147 2.664-1.938 2.664 1.938-.972-3.147 2.667-1.935zm-15.972 0h-3.393l-.966-3.147-.972 3.147H40.2l2.664 1.935-.969 3.147 2.664-1.938 2.661 1.938-.969-3.147 2.667-1.935zm-16.221 0h-3.144l-.969-3.147-.969 3.147h-3.387l2.664 1.935-1.212 3.147 2.904-1.938 2.661 1.938-.969-3.147 2.421-1.935zm-15.975 0h-3.147l-.966-3.147L11.4 17.52H8.253l2.664 1.935-1.215 3.147 2.907-1.938 2.664 1.938-1.212-3.147 2.661-1.935zm-15.972 0h-3.147l-1.209-3.147-.966 3.147h-3.147l2.664 1.935-1.215 3.147 2.664-1.938 2.661 1.938-.966-3.147L.75 17.52zm-15.969 0h-3.39l-.972-3.147-.969 3.147h-3.387l2.664 1.935-.969 3.147 2.661-1.938 2.664 1.938-.969-3.147 2.667-1.935zM64.89 1.785h-3.15l-1.209-2.904-.972 2.904h-3.141l2.661 1.941-1.212 3.384 2.664-2.178 2.664 1.935-.972-3.141 2.667-1.941zm-15.972 0h-3.393l-.966-2.904-.972 2.904H40.2l2.664 1.941-.969 3.384 2.664-2.178 2.661 1.935-.969-3.141 2.667-1.941zm-16.221 0h-3.144l-.969-2.904-.969 2.904h-3.387l2.664 1.941L25.68 7.11l2.904-2.178 2.661 1.935-.969-3.141 2.421-1.941zm-15.975 0h-3.147l-.966-2.904L11.4 1.785H8.253l2.664 1.941L9.702 7.11l2.907-2.178 2.664 1.935-1.212-3.141 2.661-1.941zm-15.972 0h-3.147l-1.209-2.904-.966 2.904h-3.147l2.664 1.941L-6.27 7.11l2.664-2.178 2.661 1.935-.966-3.141L.75 1.785zm68.736-5.808h116.61V6.864H69.486V-4.023zm0 21.543h116.61v10.89H69.486V17.52zm0 21.54h116.61v10.89H69.486V39.06zm0 21.537h116.61v10.89H69.486v-10.89zm-97.053 21.537h213.663v10.893H-27.567V82.134zm0 21.546h213.663v10.89H-27.567v-10.89zm0 21.54h213.663v10.887H-27.567V125.22z" fill="#000" mask="url(#b)"></path>
    </g>
  </symbol>
</svg>